# xmcd
#
# Track frame offsets: 
#        150
#        14455
#        26166
#        40811
#        53554
#        68856
#        84941
#        97825
#        115448
#        131594
#        145846
#        160838
#        179196
#        194705
#        211026
#        230097
#        245456
#
# Disc length: 3459 seconds
#
# Revision: 0
# Processed by: cddbd v1.5.2PL0 Copyright (c) Steve Scherf et al.
# Submitted via: ExactAudioCopy v1.3
#
DISCID=ef0d8111
DTITLE=Andy Lindquist - The River Down
DYEAR=2018
DGENRE=Blues
TTITLE0=Poor Man Scraping For A Dollar
TTITLE1=You Drive Me Like A Cadillac
TTITLE2=When You Cross Me
TTITLE3=The River Down
TTITLE4=The Devil Loves A Lazy Man
TTITLE5=There's A Jump In Ya Step
TTITLE6=She Devil Woman
TTITLE7=I'm Betting The Farm
TTITLE8=I Won't Call You No More
TTITLE9=Glorious Hallelujah
TTITLE10=Kiss The Ass Of Compromise
TTITLE11=The Truth Is Mine
TTITLE12=Forgive Me Times 7
TTITLE13=Black Eyed Mama
TTITLE14=I Swear I'm Gonna Change This Time
TTITLE15=We're A Strong Team Baby
TTITLE16=Blue Tooth Boogie
EXTD=
EXTT0=
EXTT1=
EXTT2=
EXTT3=
EXTT4=
EXTT5=
EXTT6=
EXTT7=
EXTT8=
EXTT9=
EXTT10=
EXTT11=
EXTT12=
EXTT13=
EXTT14=
EXTT15=
EXTT16=
PLAYORDER=
